<svg width="50" height="72" viewBox="0 0 50 72" fill="none" xmlns="http://www.w3.org/2000/svg">
<g filter="url(#filter0_d_122_2575)">
<path d="M44.5758 37.6411C41.7945 23.1499 27.4729 4.41403 24.8127 1.02866L24.7982 0.492432C24.7982 0.492432 24.7255 0.581265 24.5915 0.750857C24.4574 0.58288 24.3847 0.492432 24.3847 0.492432L24.3718 1.02866C21.7116 4.41403 7.39003 23.1499 4.60873 37.6411C1.79028 52.3261 9.59795 62.2415 22.776 63.763L22.7712 63.9681C23.3882 63.9681 23.9939 63.9504 24.5931 63.9164C25.1907 63.9504 25.798 63.9681 26.415 63.9681L26.4101 63.763C39.5866 62.2415 47.3943 52.3261 44.5758 37.6411Z" fill="#AAAAAA"/>
<path d="M36.2641 35.3911C34.6393 26.9277 26.2744 15.9834 24.7206 14.0065L24.7125 13.6931C24.7125 13.6931 24.6705 13.7448 24.593 13.8433C24.5154 13.7448 24.4734 13.6931 24.4734 13.6931L24.4654 14.0065C22.9116 15.9834 14.5467 26.9277 12.9218 35.3911C11.276 43.9676 15.8356 49.7596 23.5334 50.6479L23.5302 50.7674C23.8904 50.7674 24.2441 50.7561 24.5946 50.7368C24.9435 50.7561 25.2972 50.7674 25.659 50.7674L25.6558 50.6479C33.3504 49.7596 37.91 43.9676 36.2641 35.3911Z" fill="#DBDBDB"/>
<path d="M24.7985 0.492432C24.7985 0.492432 24.7258 0.581265 24.5918 0.750857C24.4577 0.58288 24.385 0.492432 24.385 0.492432L24.3721 1.02866C22.757 3.08315 16.8503 10.7891 11.832 19.7693L18.2103 23.1046L18.0762 9.69883L24.7226 14.0065L25.2556 1.59558C25.0844 1.37592 24.9358 1.18533 24.8131 1.02866L24.7985 0.492432Z" fill="white"/>
</g>
<defs>
<filter id="filter0_d_122_2575" x="0.0351562" y="0.492432" width="49.1143" height="71.4756" filterUnits="userSpaceOnUse" color-interpolation-filters="sRGB">
<feFlood flood-opacity="0" result="BackgroundImageFix"/>
<feColorMatrix in="SourceAlpha" type="matrix" values="0 0 0 0 0 0 0 0 0 0 0 0 0 0 0 0 0 0 127 0" result="hardAlpha"/>
<feOffset dy="4"/>
<feGaussianBlur stdDeviation="2"/>
<feComposite in2="hardAlpha" operator="out"/>
<feColorMatrix type="matrix" values="0 0 0 0 0 0 0 0 0 0 0 0 0 0 0 0 0 0 0.25 0"/>
<feBlend mode="normal" in2="BackgroundImageFix" result="effect1_dropShadow_122_2575"/>
<feBlend mode="normal" in="SourceGraphic" in2="effect1_dropShadow_122_2575" result="shape"/>
</filter>
</defs>
</svg>
