<svg width="75" height="67" viewBox="0 0 75 67" fill="none" xmlns="http://www.w3.org/2000/svg">
<g filter="url(#filter0_d_122_2557)">
<path d="M57.3108 1.52951C49.1743 -2.03023 37.9865 7.97094 37.9865 7.97094L37.6068 8.25572L37.2271 7.97094C37.2271 7.97094 26.0394 -2.03023 17.9028 1.52951C9.76625 5.08925 -3.79466 17.6331 11.6309 35.7708C25.6427 52.2473 35.7388 57.6717 37.4712 58.5277L37.478 58.6549C37.478 58.6549 37.5221 58.6345 37.6068 58.5938C37.6916 58.6345 37.7356 58.6549 37.7356 58.6549L37.7424 58.5277C39.4748 57.6717 49.5692 52.2456 63.5828 35.7708C79.0083 17.6331 65.4474 5.08925 57.3108 1.52951Z" fill="#DBDBDB"/>
<path d="M57.311 1.52936C55.7871 0.863179 54.1564 0.671635 52.5138 0.802159C69.3785 25.1338 45.8419 37.8014 42.3398 40.8035C38.6258 43.9869 36.2374 41.8646 30.7893 37.0895C25.3412 32.3143 25.0937 24.0879 25.0937 24.0879L20.8491 14.4275L9.35114 7.82502C3.98611 13.9325 1.27222 23.5913 11.6328 35.7724C25.6446 52.2489 35.7407 57.6732 37.4731 58.5293L37.4799 58.6564C37.4799 58.6564 37.5239 58.6361 37.6087 58.5954C37.6935 58.6361 37.7375 58.6564 37.7375 58.6564L37.7443 58.5293C39.4767 57.6732 49.5711 52.2472 63.5846 35.7724C79.0085 17.6329 65.4476 5.0891 57.311 1.52936Z" fill="#AAAAAA"/>
<path d="M25.0934 24.0863L30.789 3.50929C26.9496 1.40904 22.0337 -0.277593 17.9027 1.5294C14.582 2.98211 10.3578 5.93162 7.56934 10.1474L25.0934 24.0863Z" fill="white"/>
</g>
<defs>
<filter id="filter0_d_122_2557" x="0.592773" y="0.763184" width="74.0283" height="65.8933" filterUnits="userSpaceOnUse" color-interpolation-filters="sRGB">
<feFlood flood-opacity="0" result="BackgroundImageFix"/>
<feColorMatrix in="SourceAlpha" type="matrix" values="0 0 0 0 0 0 0 0 0 0 0 0 0 0 0 0 0 0 127 0" result="hardAlpha"/>
<feOffset dy="4"/>
<feGaussianBlur stdDeviation="2"/>
<feComposite in2="hardAlpha" operator="out"/>
<feColorMatrix type="matrix" values="0 0 0 0 0 0 0 0 0 0 0 0 0 0 0 0 0 0 0.25 0"/>
<feBlend mode="normal" in2="BackgroundImageFix" result="effect1_dropShadow_122_2557"/>
<feBlend mode="normal" in="SourceGraphic" in2="effect1_dropShadow_122_2557" result="shape"/>
</filter>
</defs>
</svg>
