<svg width="69" height="61" viewBox="0 0 69 61" fill="none" xmlns="http://www.w3.org/2000/svg">
<g filter="url(#filter0_d_122_2579)">
<path d="M58.0208 5.58811C53.9101 1.63001 37.91 0.543446 34.6892 0.362069L34.6875 0.333252C34.6875 0.333252 34.5875 0.338338 34.4045 0.346813C34.2214 0.336642 34.1214 0.333252 34.1214 0.333252L34.1197 0.362069C30.899 0.541751 14.8988 1.63001 10.7881 5.58811C6.21131 9.99541 0.1089 12.7076 7.73692 25.5905C15.3649 38.4733 22.4844 46.6099 25.3661 49.4916C26.8409 50.9663 28.7174 51.9071 30.9024 52.3631V52.3733C30.9736 52.3851 31.0431 52.3953 31.1142 52.4055C32.1483 52.6038 33.2484 52.6953 34.4078 52.6835C35.5656 52.6936 36.6674 52.6038 37.7015 52.4055C37.7727 52.3953 37.8422 52.3851 37.9134 52.3733V52.3631C40.0967 51.9088 41.9731 50.968 43.4496 49.4916C46.3313 46.6099 53.4508 38.4733 61.0788 25.5905C68.7068 12.7076 62.5976 9.99541 58.0208 5.58811Z" fill="#DBDBDB"/>
<path d="M7.00113 24.3037L25.6118 19.4472L19.3348 2.19775C15.6666 2.9809 12.3577 4.07425 10.7863 5.58798C6.36545 9.84442 0.524093 12.521 7.00113 24.3037Z" fill="white"/>
<path d="M61.0716 25.5906C68.6997 12.7077 62.5972 9.9955 58.0204 5.5882C57.3746 4.96609 56.4321 4.41349 55.2947 3.92529C57.6678 22.6563 43.8374 41.7569 37.1536 43.435C29.5917 45.3335 25.6115 33.3254 25.6115 33.3254L18.7734 41.8637C21.6619 45.559 23.9927 48.122 25.364 49.4917C26.8388 50.9664 28.7153 51.9072 30.9003 52.3632V52.3734C30.9715 52.3852 31.041 52.3954 31.1122 52.4056C32.1462 52.6039 33.2463 52.6954 34.4058 52.6836C35.5635 52.6937 36.6654 52.6039 37.6994 52.4056C37.7706 52.3954 37.8401 52.3852 37.9113 52.3734V52.3632C40.0946 51.9089 41.9711 50.9681 43.4475 49.4917C46.3241 46.61 53.4436 38.4734 61.0716 25.5906Z" fill="#AAAAAA"/>
</g>
<defs>
<filter id="filter0_d_122_2579" x="0.117188" y="0.333252" width="68.5781" height="60.3513" filterUnits="userSpaceOnUse" color-interpolation-filters="sRGB">
<feFlood flood-opacity="0" result="BackgroundImageFix"/>
<feColorMatrix in="SourceAlpha" type="matrix" values="0 0 0 0 0 0 0 0 0 0 0 0 0 0 0 0 0 0 127 0" result="hardAlpha"/>
<feOffset dy="4"/>
<feGaussianBlur stdDeviation="2"/>
<feComposite in2="hardAlpha" operator="out"/>
<feColorMatrix type="matrix" values="0 0 0 0 0 0 0 0 0 0 0 0 0 0 0 0 0 0 0.25 0"/>
<feBlend mode="normal" in2="BackgroundImageFix" result="effect1_dropShadow_122_2579"/>
<feBlend mode="normal" in="SourceGraphic" in2="effect1_dropShadow_122_2579" result="shape"/>
</filter>
</defs>
</svg>
