<svg width="64" height="64" viewBox="0 0 64 64" fill="none" xmlns="http://www.w3.org/2000/svg">
<g filter="url(#filter0_d_122_2565)">
<path d="M31.8452 55.4756C47.105 55.4756 59.4756 43.105 59.4756 27.8452C59.4756 12.5854 47.105 0.214844 31.8452 0.214844C16.5854 0.214844 4.21484 12.5854 4.21484 27.8452C4.21484 43.105 16.5854 55.4756 31.8452 55.4756Z" fill="#DBDBDB"/>
<path d="M29.4159 11.5805L15.4023 5.63916L18.4061 20.9799L29.4159 11.5805Z" fill="#FEFEFE"/>
<path d="M18.5708 18.717L4.21484 23.7787L16.7773 33.0814L18.5708 18.717Z" fill="#FEFEFE"/>
<path d="M31.5607 28.9863L27.9688 55.2046C29.235 55.3826 30.5284 55.4758 31.8455 55.4758C47.1049 55.4758 59.4758 43.1049 59.4758 27.8455C59.4758 21.2379 57.1552 15.1745 53.287 10.4197L38.8378 16.7814L31.5607 28.9863Z" fill="#AAAAAA"/>
<path d="M31.845 44.2878C40.926 44.2878 48.2876 36.9262 48.2876 27.8452C48.2876 18.7642 40.926 11.4026 31.845 11.4026C22.764 11.4026 15.4023 18.7642 15.4023 27.8452C15.4023 36.9262 22.764 44.2878 31.845 44.2878Z" fill="#DBDBDB"/>
</g>
<defs>
<filter id="filter0_d_122_2565" x="0.214844" y="0.214844" width="63.2607" height="63.261" filterUnits="userSpaceOnUse" color-interpolation-filters="sRGB">
<feFlood flood-opacity="0" result="BackgroundImageFix"/>
<feColorMatrix in="SourceAlpha" type="matrix" values="0 0 0 0 0 0 0 0 0 0 0 0 0 0 0 0 0 0 127 0" result="hardAlpha"/>
<feOffset dy="4"/>
<feGaussianBlur stdDeviation="2"/>
<feComposite in2="hardAlpha" operator="out"/>
<feColorMatrix type="matrix" values="0 0 0 0 0 0 0 0 0 0 0 0 0 0 0 0 0 0 0.25 0"/>
<feBlend mode="normal" in2="BackgroundImageFix" result="effect1_dropShadow_122_2565"/>
<feBlend mode="normal" in="SourceGraphic" in2="effect1_dropShadow_122_2565" result="shape"/>
</filter>
</defs>
</svg>
