<svg width="199" height="74" viewBox="0 0 199 74" fill="none" xmlns="http://www.w3.org/2000/svg">
<path d="M181.434 0H17.4091C16.7514 0 16.0938 0 15.4179 0C14.8516 0 14.3036 0.0184696 13.7373 0.0184696C12.5133 0.0554089 11.2894 0.129288 10.0837 0.350923C8.85981 0.572559 7.72722 0.941952 6.61289 1.51451C5.51683 2.0686 4.51211 2.80739 3.65353 3.69393C2.77668 4.562 2.04598 5.57783 1.49795 6.68601C0.93165 7.81266 0.566297 8.95778 0.347085 10.1952C0.127874 11.4142 0.054803 12.6517 0.0182677 13.8892C0.0182677 14.4617 0 15.0343 0 15.5884C0 16.2533 0 16.9367 0 17.6016V56.2585C0 56.9419 0 57.6068 0 58.2717C0 58.8443 0.0182677 59.3984 0.0365353 59.971C0.0730706 61.2084 0.146141 62.4459 0.365353 63.6649C0.584565 64.9023 0.93165 66.0659 1.51622 67.1741C2.06425 68.2823 2.79495 69.2797 3.6718 70.1477C4.53038 71.0343 5.5351 71.7731 6.63116 72.3271C7.74549 72.8997 8.87808 73.2691 10.102 73.4907C11.3077 73.7124 12.5499 73.7862 13.7555 73.8232C14.3036 73.8601 14.8516 73.8786 15.4179 73.8786C16.0938 73.8786 16.7514 73.8786 17.4091 73.8786H181.434C182.092 73.8786 182.75 73.8786 183.407 73.8786C183.955 73.8786 184.54 73.8786 185.088 73.8601C186.312 73.8232 187.536 73.7493 188.741 73.5277C189.965 73.306 191.098 72.9366 192.231 72.3641C193.327 71.81 194.313 71.0712 195.19 70.1847C196.067 69.3166 196.779 68.3008 197.345 67.211C197.912 66.0844 198.277 64.9393 198.478 63.7018C198.697 62.4828 198.77 61.2454 198.825 60.0079C198.825 59.4353 198.825 58.8812 198.825 58.3087C198.843 57.6438 198.843 56.9789 198.843 56.2955V17.62C198.843 16.9367 198.843 16.2718 198.825 15.6069C198.825 15.0343 198.825 14.4802 198.825 13.9076C198.789 12.6702 198.716 11.4327 198.478 10.2137C198.277 8.97625 197.912 7.83113 197.345 6.70448C196.779 5.5963 196.048 4.58047 195.19 3.7124C194.331 2.84433 193.327 2.10554 192.231 1.53298C191.098 0.960422 189.965 0.591029 188.741 0.369393C187.536 0.147757 186.312 0.0738786 185.088 0.0369393C184.54 0.0369393 183.955 0.0184696 183.407 0.0184696C182.768 0 182.092 0 181.434 0Z" fill="#B1B1B1"/>
<path d="M15.418 72.2532C14.8699 72.2532 14.3219 72.2532 13.7739 72.2348C12.7509 72.1978 11.5452 72.1424 10.3578 71.9393C9.2435 71.7361 8.25705 71.4036 7.3254 70.9234C6.37548 70.4432 5.5169 69.7968 4.76793 69.0395C4.01895 68.2823 3.39785 67.4327 2.90463 66.4538C2.42967 65.5303 2.10085 64.5145 1.91817 63.3878C1.69896 62.1503 1.64416 60.8759 1.60762 59.9155C1.58936 59.5276 1.58936 58.2348 1.58936 58.2348V15.5884C1.58936 15.5884 1.60762 14.314 1.60762 13.9446C1.64416 12.9841 1.69896 11.7097 1.91817 10.4907C2.11912 9.34562 2.44794 8.34826 2.92289 7.42477C3.41612 6.46435 4.03722 5.59628 4.7862 4.83902C5.53517 4.0633 6.39375 3.43533 7.3254 2.95512C8.25705 2.47491 9.26177 2.14246 10.3396 1.95776C11.5818 1.71765 12.824 1.66224 13.7739 1.64377L15.418 1.62531H183.407L185.07 1.64377C186.001 1.66224 187.262 1.71765 188.467 1.93929C189.564 2.14246 190.568 2.45644 191.518 2.95512C192.45 3.43533 193.308 4.08177 194.057 4.83902C194.806 5.59628 195.427 6.46435 195.921 7.42477C196.396 8.36673 196.706 9.36409 196.907 10.4723C197.126 11.6359 197.181 12.8364 197.218 13.963C197.218 14.4802 197.218 15.0527 197.218 15.6068C197.236 16.3087 197.236 16.9551 197.236 17.62V56.277C197.236 56.9419 197.236 57.6068 197.218 58.2717C197.218 58.8812 197.218 59.4168 197.218 59.9894C197.181 61.0791 197.108 62.2796 196.907 63.4063C196.724 64.5329 196.396 65.5488 195.921 66.4907C195.427 67.4511 194.806 68.3192 194.057 69.058C193.308 69.8337 192.45 70.4617 191.5 70.9419C190.55 71.4221 189.582 71.7546 188.449 71.9577C187.28 72.1794 186.074 72.2348 185.033 72.2532C184.503 72.2717 183.937 72.2717 183.389 72.2717H181.416L15.418 72.2532Z" fill="#000001"/>
<path d="M75.2079 30.5673H67.8095L66.0375 35.8681H62.8955L69.892 16.2533H73.1437L80.1584 35.8865H76.9616L75.2079 30.5673ZM68.5768 28.1293H74.4407L71.5544 19.5224H71.4813L68.5768 28.1293Z" fill="white"/>
<path d="M95.3022 28.7203C95.3022 33.1715 92.9457 36.0343 89.4017 36.0343C87.3923 36.0343 85.7847 35.1293 84.9444 33.5224H84.8714V40.6148H81.9668V21.5726H84.78V23.9551H84.8348C85.6386 22.4222 87.374 21.4248 89.3469 21.4248C92.9457 21.4248 95.3022 24.2876 95.3022 28.7203ZM92.3246 28.7203C92.3246 25.8206 90.8449 23.9182 88.5797 23.9182C86.351 23.9182 84.8714 25.8575 84.8714 28.7203C84.8714 31.6016 86.3693 33.5409 88.5797 33.5409C90.8449 33.5409 92.3246 31.657 92.3246 28.7203Z" fill="white"/>
<path d="M110.885 28.7203C110.885 33.1715 108.528 36.0343 104.984 36.0343C102.975 36.0343 101.367 35.1293 100.527 33.5224H100.454V40.6148H97.5493V21.5726H100.363V23.9551H100.417C101.221 22.4222 102.957 21.4248 104.929 21.4248C108.528 21.4248 110.885 24.2876 110.885 28.7203ZM107.907 28.7203C107.907 25.8206 106.427 23.9182 104.162 23.9182C101.934 23.9182 100.454 25.8575 100.454 28.7203C100.454 31.6016 101.952 33.5409 104.162 33.5409C106.427 33.5409 107.907 31.657 107.907 28.7203Z" fill="white"/>
<path d="M121.187 30.4195C121.407 32.3588 123.27 33.6517 125.827 33.6517C128.275 33.6517 130.047 32.3773 130.047 30.6227C130.047 29.0897 128.988 28.1847 126.467 27.5567L123.946 26.9472C120.384 26.0792 118.721 24.3984 118.721 21.6465C118.721 18.2665 121.644 15.9393 125.791 15.9393C129.901 15.9393 132.714 18.2665 132.806 21.6465H129.865C129.682 19.6887 128.093 18.5066 125.754 18.5066C123.416 18.5066 121.808 19.7071 121.808 21.4433C121.808 22.8285 122.831 23.6412 125.334 24.2691L127.471 24.8048C131.454 25.7652 133.116 27.372 133.116 30.2533C133.116 33.9288 130.23 36.219 125.626 36.219C121.315 36.219 118.411 33.9657 118.228 30.4195H121.187Z" fill="white"/>
<path d="M139.382 18.1741V21.5541H142.067V23.8813H139.382V31.7678C139.382 32.9868 139.93 33.5594 141.099 33.5594C141.392 33.5594 141.866 33.5224 142.049 33.4855V35.7942C141.72 35.8681 141.081 35.9235 140.442 35.9235C137.574 35.9235 136.459 34.8338 136.459 32.0633V23.8628H134.395V21.5356H136.459V18.1741H139.382Z" fill="white"/>
<path d="M143.639 28.7203C143.639 24.2137 146.269 21.3879 150.361 21.3879C154.471 21.3879 157.084 24.2137 157.084 28.7203C157.084 33.2269 154.49 36.0528 150.361 36.0528C146.233 36.0528 143.639 33.2454 143.639 28.7203ZM154.106 28.7203C154.106 25.6359 152.699 23.8074 150.343 23.8074C147.986 23.8074 146.58 25.6359 146.58 28.7203C146.58 31.8232 147.986 33.6333 150.343 33.6333C152.699 33.6333 154.106 31.8232 154.106 28.7203Z" fill="white"/>
<path d="M159.458 21.5726H162.235V24.0106H162.308C162.747 22.3852 164.044 21.4248 165.706 21.4248C166.126 21.4248 166.473 21.4802 166.711 21.5356V24.2876C166.473 24.1953 165.962 24.1029 165.414 24.1029C163.55 24.1029 162.381 25.3773 162.381 27.3905V35.8865H159.477V21.5726H159.458Z" fill="white"/>
<path d="M180.101 31.6755C179.717 34.2797 177.214 36.0528 173.999 36.0528C169.889 36.0528 167.332 33.2639 167.332 28.7942C167.332 24.3061 169.907 21.3879 173.89 21.3879C177.799 21.3879 180.265 24.1029 180.265 28.4433V29.4591H170.254V29.6438C170.254 32.1003 171.771 33.7071 174.054 33.7071C175.662 33.7071 176.94 32.9314 177.324 31.6939H180.101V31.6755ZM170.273 27.409H177.342C177.269 25.2111 175.881 23.7705 173.871 23.7705C171.862 23.7705 170.419 25.248 170.273 27.409Z" fill="white"/>
<path d="M62.8957 44.401H76.5234V45.8416H70.0384V47.8733C70.97 48.3166 71.9017 48.7968 72.8333 49.3139C73.765 49.8311 74.7332 50.4036 75.6831 50.9947L74.8428 52.3245C73.8563 51.678 72.9612 51.124 72.1757 50.6437C71.3902 50.1635 70.6777 49.7572 70.0201 49.4247V57.9393H68.577V45.8416H62.8774V44.401H62.8957Z" fill="white"/>
<path d="M80.3777 44.5488H83.0083V43.7361H84.3966V44.5488H86.9358V45.6939H84.3966V46.525H88.0136C87.9771 46.1002 87.9588 45.6385 87.9588 45.1768C87.9588 44.715 87.9588 44.2163 87.9588 43.7177H89.3106C89.3106 44.2163 89.3106 44.6965 89.3289 45.1768C89.3472 45.657 89.3654 46.1002 89.3837 46.525H93.0555V47.744H89.4385C89.475 48.6121 89.5298 49.3694 89.5846 50.0158C89.6577 50.6807 89.7308 51.2533 89.8221 51.7335C89.8404 51.8812 89.8587 52.029 89.8952 52.1398C89.9135 52.2691 89.95 52.3799 89.9865 52.5092C90.2423 51.9182 90.4615 51.3087 90.6624 50.6438C90.8634 49.9973 91.0278 49.277 91.1739 48.5013L92.4161 49.0554C91.9412 51.2717 91.3018 53.0633 90.5346 54.4485C90.6259 54.7071 90.7355 54.9472 90.8268 55.1688C91.1374 55.8707 91.4114 56.2216 91.6306 56.2216C91.795 56.2216 91.9777 55.4274 92.1604 53.8575L93.3478 54.5224C93.0007 56.7572 92.4892 57.8839 91.8133 57.8839C91.3201 57.8839 90.7538 57.4221 90.1327 56.4802C89.95 56.2401 89.8221 56 89.7125 55.7414C89.1097 56.4986 88.4886 57.0897 87.8309 57.5145L87.1733 56.591H84.3601V57.8839H83.0083V56.591H79.574V55.4089H83.0083V54.744H80.3229V50.2374H83.0083V49.6279H79.7749V48.5382H83.0083V47.9472H84.3601V48.5382H87.5752V49.6279H84.3601V50.2374H87.1002V54.7256H84.3601V55.3905H87.5569V56.0184C88.1415 55.5382 88.653 54.9472 89.1097 54.2269C89.0183 53.9129 88.927 53.5989 88.8539 53.248C88.7809 52.9155 88.7078 52.5461 88.6164 52.1583C88.3607 50.9578 88.178 49.4802 88.0867 47.744H79.4644V46.5435H83.0448V45.7124H80.3777V44.5488ZM81.5286 51.9921H83.0996V51.2348H81.5286V51.9921ZM83.1179 53.7097V52.8971H81.5469V53.7097H83.1179ZM84.287 51.2348V51.9921H85.858V51.2348H84.287ZM85.858 53.7097V52.8971H84.287V53.7097H85.858ZM89.8952 44.438L90.9182 43.7731C91.6489 44.5303 92.1786 45.1952 92.544 45.7678L91.5027 46.525C91.3018 46.2111 91.0826 45.8786 90.8268 45.5277C90.5528 45.1768 90.2423 44.8258 89.8952 44.438Z" fill="white"/>
<path d="M45.249 37.4934C45.1942 32.4142 49.3592 29.9393 49.5601 29.8285C47.2036 26.3562 43.5501 25.8759 42.2713 25.839C39.2024 25.5066 36.2248 27.686 34.672 27.686C33.0827 27.686 30.6714 25.8575 28.0774 25.9129C24.7344 25.9683 21.6106 27.9261 19.9117 30.9551C16.3861 37.1424 19.0166 46.2295 22.3961 51.2348C24.095 53.6912 26.0679 56.4247 28.6619 56.3139C31.2011 56.2031 32.1511 54.6886 35.2018 54.6886C38.2342 54.6886 39.111 56.3139 41.7599 56.2585C44.4817 56.2216 46.1989 53.8021 47.8247 51.3271C49.7794 48.5197 50.5649 45.7493 50.6014 45.62C50.5101 45.6015 45.3038 43.5883 45.249 37.4934Z" fill="white"/>
<path d="M40.2617 22.5514C41.6318 20.8338 42.5634 18.4881 42.2894 16.1055C40.3165 16.1979 37.8504 17.4908 36.4255 19.1715C35.165 20.6491 34.0507 23.0871 34.343 25.3773C36.5534 25.5435 38.8368 24.2506 40.2617 22.5514Z" fill="white"/>
</svg>
