<svg width="38" height="30" viewBox="0 0 38 30" fill="none" xmlns="http://www.w3.org/2000/svg">
<path d="M37.9089 20.792C37.9164 21.9162 37.8722 23.0371 37.691 24.1482C37.6533 24.3804 37.4484 24.4791 37.2996 24.6158C36.5836 25.2745 35.7663 25.7899 34.9209 26.2586C32.7956 27.4381 30.5484 28.3344 28.2582 29.1254C28.1061 29.1775 28.035 29.1569 27.9519 29.0093C27.3934 28.0089 26.8251 27.0149 26.2525 26.0221C26.176 25.8897 26.1878 25.8387 26.3302 25.7747C27.2273 25.3711 28.1191 24.9555 29.0162 24.5507C29.151 24.49 29.1866 24.4335 29.1111 24.299C29.0087 24.1178 28.9084 23.9322 28.8318 23.738C28.766 23.572 28.6798 23.5698 28.5439 23.6425C28.394 23.7217 28.2334 23.7825 28.0813 23.8585C26.6353 24.579 25.0934 25.001 23.5245 25.3331C21.9577 25.6651 20.3726 25.8149 18.7714 25.7769C16.411 25.7194 14.1131 25.3038 11.8843 24.5117C11.1824 24.2621 10.4955 23.9778 9.83018 23.6436C9.72127 23.5894 9.66844 23.5991 9.61776 23.7141C9.52502 23.9225 9.42259 24.1265 9.31368 24.3261C9.25545 24.4325 9.26516 24.4845 9.38053 24.5366C10.1979 24.9034 11.012 25.2767 11.8261 25.6488C11.9684 25.7139 12.1809 25.7552 12.2283 25.8659C12.279 25.983 12.1097 26.1371 12.0331 26.2728C11.5123 27.1929 10.9883 28.112 10.4675 29.0321C10.4146 29.1254 10.3801 29.196 10.241 29.1482C8.06178 28.4006 5.92785 27.5456 3.88665 26.467C3.28604 26.1501 2.68651 25.8224 2.13442 25.434C1.67076 25.1074 1.21356 24.7526 0.823224 24.3283C0.758526 24.2578 0.746665 24.171 0.732647 24.0831C0.504049 22.5716 0.481405 21.0535 0.571982 19.5301C0.68628 17.5986 1.00545 15.703 1.48745 13.8323C2.13982 11.2987 3.09195 8.88004 4.28669 6.55798C4.83446 5.49351 5.43615 4.45944 6.07773 3.44923C6.14027 3.35049 6.21467 3.27344 6.31603 3.21268C7.04172 2.77322 7.80731 2.4184 8.59662 2.11241C10.3402 1.43749 12.1463 1.04578 14.0064 0.890614C14.2177 0.873253 14.3008 0.940528 14.3633 1.13693C14.5272 1.65559 14.7213 2.16558 14.8917 2.68316C14.938 2.82531 15.0038 2.84592 15.1397 2.82314C15.8977 2.70052 16.6514 2.53342 17.4181 2.477C18.8911 2.36849 20.3651 2.35004 21.8305 2.5931C22.334 2.67665 22.8398 2.74393 23.3422 2.82965C23.4749 2.85243 23.5083 2.78408 23.5406 2.68967C23.7261 2.15039 23.918 1.61328 24.0949 1.07182C24.1423 0.925337 24.2081 0.876508 24.3634 0.888444C25.9474 1.0078 27.4958 1.30945 29.0043 1.81185C29.9748 2.1352 30.9118 2.53776 31.8133 3.02713C32.1174 3.19206 32.3449 3.40582 32.5271 3.70097C33.6647 5.54777 34.6761 7.45859 35.4956 9.47032C35.6887 9.94559 35.8741 10.4241 36.0477 10.9059C36.9147 13.3007 37.4937 15.7649 37.7654 18.3007C37.8528 19.1308 37.9045 19.9598 37.9089 20.792ZM28.7531 16.4105C28.7402 15.5001 28.518 14.7416 28.05 14.0559C26.8866 12.348 24.523 12.1309 23.0856 13.6056C21.6461 15.0813 21.6439 17.5487 23.0813 19.0266C24.1412 20.116 25.7641 20.3428 27.0321 19.5344C28.1902 18.7966 28.7046 17.6811 28.7531 16.4105ZM9.68892 16.0828C9.69432 17.1255 9.90998 17.8667 10.365 18.5362C11.5263 20.2473 13.8145 20.5186 15.2755 19.095C16.2083 18.1868 16.5619 17.0496 16.3873 15.7659C16.1975 14.376 15.4567 13.369 14.1617 12.8297C13.3562 12.4944 12.5227 12.5302 11.7409 12.9187C10.3499 13.6088 9.75254 14.8046 9.68892 16.0828Z" fill="#FEFEFE"/>
</svg>
