<svg width="675" height="675" viewBox="0 0 675 675" fill="none" xmlns="http://www.w3.org/2000/svg">
<path d="M284.881 0H395.569L352.93 288.497H327.519L284.881 0Z" fill="url(#paint0_radial_175_10639)"/>
<path d="M61.6494 136.052L139.901 57.8013L313.769 291.952L295.8 309.921L61.6494 136.052Z" fill="url(#paint1_radial_175_10639)"/>
<path d="M0 390.119V279.432L288.497 322.07V347.481L0 390.119Z" fill="url(#paint2_radial_175_10639)"/>
<path d="M136.053 613.35L57.8018 535.099L291.952 361.23L309.921 379.199L136.053 613.35Z" fill="url(#paint3_radial_175_10639)"/>
<path d="M390.119 675H279.432L322.07 386.503H347.481L390.119 675Z" fill="url(#paint4_radial_175_10639)"/>
<path d="M613.35 538.948L535.099 617.199L361.23 383.048L379.199 365.079L613.35 538.948Z" fill="url(#paint5_radial_175_10639)"/>
<path d="M674.999 284.88V395.568L386.502 352.93V327.519L674.999 284.88Z" fill="url(#paint6_radial_175_10639)"/>
<path d="M538.946 61.6501L617.197 139.901L383.047 313.769L365.078 295.801L538.946 61.6501Z" fill="url(#paint7_radial_175_10639)"/>
<defs>
<radialGradient id="paint0_radial_175_10639" cx="0" cy="0" r="1" gradientUnits="userSpaceOnUse" gradientTransform="translate(333.871 339.314) scale(274.286 274.286)">
<stop stop-color="white"/>
<stop offset="0.8646" stop-color="white" stop-opacity="0"/>
</radialGradient>
<radialGradient id="paint1_radial_175_10639" cx="0" cy="0" r="1" gradientUnits="userSpaceOnUse" gradientTransform="translate(333.87 339.314) scale(274.286)">
<stop stop-color="white"/>
<stop offset="0.8646" stop-color="white" stop-opacity="0"/>
</radialGradient>
<radialGradient id="paint2_radial_175_10639" cx="0" cy="0" r="1" gradientUnits="userSpaceOnUse" gradientTransform="translate(333.871 339.314) scale(274.286 274.286)">
<stop stop-color="white"/>
<stop offset="0.8646" stop-color="white" stop-opacity="0"/>
</radialGradient>
<radialGradient id="paint3_radial_175_10639" cx="0" cy="0" r="1" gradientUnits="userSpaceOnUse" gradientTransform="translate(333.871 339.314) scale(274.286)">
<stop stop-color="white"/>
<stop offset="0.8646" stop-color="white" stop-opacity="0"/>
</radialGradient>
<radialGradient id="paint4_radial_175_10639" cx="0" cy="0" r="1" gradientUnits="userSpaceOnUse" gradientTransform="translate(333.871 339.314) scale(274.286 274.286)">
<stop stop-color="white"/>
<stop offset="0.8646" stop-color="white" stop-opacity="0"/>
</radialGradient>
<radialGradient id="paint5_radial_175_10639" cx="0" cy="0" r="1" gradientUnits="userSpaceOnUse" gradientTransform="translate(333.871 339.314) scale(274.286)">
<stop stop-color="white"/>
<stop offset="0.8646" stop-color="white" stop-opacity="0"/>
</radialGradient>
<radialGradient id="paint6_radial_175_10639" cx="0" cy="0" r="1" gradientUnits="userSpaceOnUse" gradientTransform="translate(333.87 339.314) scale(274.286 274.286)">
<stop stop-color="white"/>
<stop offset="0.8646" stop-color="white" stop-opacity="0"/>
</radialGradient>
<radialGradient id="paint7_radial_175_10639" cx="0" cy="0" r="1" gradientUnits="userSpaceOnUse" gradientTransform="translate(333.87 339.314) scale(274.286)">
<stop stop-color="white"/>
<stop offset="0.8646" stop-color="white" stop-opacity="0"/>
</radialGradient>
</defs>
</svg>
