<svg width="81" height="81" viewBox="0 0 81 81" fill="none" xmlns="http://www.w3.org/2000/svg">
<g filter="url(#filter0_d_233_2299)">
<path d="M63.9502 25.7431H47.2569V9.04979C47.2533 4.0514 43.2019 0 38.2071 0H34.7929C29.7945 0 25.7431 4.0514 25.7431 9.04979V25.7431H9.04979C4.0514 25.7431 0 29.7945 0 34.7929V38.2071C0 43.2055 4.0514 47.2569 9.04979 47.2569H25.7431V63.9502C25.7431 68.9486 29.7945 73 34.7929 73H38.2071C43.2055 73 47.2569 68.9486 47.2569 63.9502V47.2569H63.9502C68.9486 47.2569 73 43.2055 73 38.2071V34.7929C72.9964 29.7945 68.945 25.7431 63.9502 25.7431Z" fill="white"/>
</g>
<defs>
<filter id="filter0_d_233_2299" x="0" y="0" width="81" height="81" filterUnits="userSpaceOnUse" color-interpolation-filters="sRGB">
<feFlood flood-opacity="0" result="BackgroundImageFix"/>
<feColorMatrix in="SourceAlpha" type="matrix" values="0 0 0 0 0 0 0 0 0 0 0 0 0 0 0 0 0 0 127 0" result="hardAlpha"/>
<feOffset dx="4" dy="4"/>
<feGaussianBlur stdDeviation="2"/>
<feComposite in2="hardAlpha" operator="out"/>
<feColorMatrix type="matrix" values="0 0 0 0 0 0 0 0 0 0 0 0 0 0 0 0 0 0 0.25 0"/>
<feBlend mode="normal" in2="BackgroundImageFix" result="effect1_dropShadow_233_2299"/>
<feBlend mode="normal" in="SourceGraphic" in2="effect1_dropShadow_233_2299" result="shape"/>
</filter>
</defs>
</svg>
