<svg width="21" height="21" viewBox="0 0 21 21" fill="none" xmlns="http://www.w3.org/2000/svg">
<path d="M8.72293 20.0146L6.25572 15.3183C6.09333 15.0067 5.84189 14.75 5.53808 14.5745L0.928425 11.9474C-0.33399 11.2272 -0.302561 9.39633 0.983427 8.72058L5.68213 6.25591C5.9938 6.09352 6.25048 5.84208 6.42596 5.53825L9.05294 0.928454C9.77319 -0.334001 11.604 -0.30257 12.2797 0.983458L14.7443 5.67969C14.9067 5.99137 15.1581 6.24805 15.4619 6.42354L20.0716 9.0506C21.334 9.77088 21.3026 11.6017 20.0166 12.2775L15.3205 14.7421C15.0088 14.9045 14.7521 15.156 14.5767 15.4598L11.9497 20.0696C11.2294 21.3347 9.39866 21.3032 8.72293 20.0146Z" fill="#FFBD20"/>
</svg>
