<svg width="38" height="31" viewBox="0 0 38 31" fill="none" xmlns="http://www.w3.org/2000/svg">
<path d="M37.4396 4.74279C37.4617 4.95791 37.269 5.04567 37.1505 5.16767C36.117 6.23469 35.0803 7.29957 34.0346 8.35482C33.7777 8.61382 33.6569 8.88137 33.6602 9.25274C33.6935 12.6893 33.0688 16.0027 31.3984 19.0593C27.8915 25.4796 22.4219 29.2725 14.9452 30.2175C10.0925 30.8308 5.5677 29.8023 1.37742 27.3739C1.19354 27.269 1.01964 27.1481 0.72168 26.9587C4.57081 27.1962 7.94253 26.3069 11.0484 24.0391C9.34705 23.8603 7.91927 23.3723 6.68755 22.4027C5.47244 21.4459 4.63948 20.2419 4.01808 18.765C5.1335 18.9544 6.13483 18.9405 7.15055 18.6108C6.89247 18.4011 6.58232 18.354 6.30762 18.2416C3.58499 17.1329 1.80608 15.2685 1.27994 12.396C1.27662 12.3789 1.26887 12.3618 1.26665 12.3436C1.24117 12.0428 1.08167 11.6426 1.27551 11.4692C1.47711 11.2873 1.77839 11.6276 2.03869 11.7271C2.78304 12.0097 3.53957 12.1862 4.42017 12.1188C4.02694 11.6768 3.65366 11.2937 3.32358 10.8795C1.45606 8.53141 0.89226 5.97142 2.02651 3.15136C2.38871 2.25129 2.39204 2.26199 3.04666 2.95657C6.69752 6.83295 11.137 9.3191 16.5502 10.0693C17.0597 10.14 17.5781 10.1485 18.092 10.1924C18.4343 10.2213 18.5351 10.1421 18.4321 9.77395C17.8528 7.70091 18.174 5.74988 19.367 3.93798C22.0807 -0.179205 28.0643 -0.696126 31.4593 2.91697C31.8891 3.37503 32.2646 3.43497 32.804 3.19952C33.8053 2.76179 34.6782 2.13892 35.5466 1.50427C35.6917 1.39832 35.8091 1.25169 36.0029 1.21638L36.0041 1.21745C35.6274 2.18922 34.975 3.01651 34.4699 3.92085C34.1221 4.5448 33.7422 5.15162 33.3224 5.8569C34.7812 5.52727 36.0805 5.01891 37.4462 4.75242L37.4396 4.74279Z" fill="#FDFEFE"/>
</svg>
